<?xml version="1.0" encoding="utf-8"?>
<!-- Generator: Adobe Illustrator 25.2.0, SVG Export Plug-In . SVG Version: 6.00 Build 0)  -->
<svg version="1.1" id="Layer_1" xmlns="http://www.w3.org/2000/svg" xmlns:xlink="http://www.w3.org/1999/xlink" x="0px" y="0px"
	 viewBox="0 0 480 480" style="enable-background:new 0 0 480 480;" xml:space="preserve">
<style type="text/css">
	.st0{fill:#FFFFFF;}
</style>
<path class="st0" d="M239.71,100.46c-77,0-139.42,62.42-139.42,139.42c0,77,62.42,139.42,139.42,139.42s139.42-62.42,139.42-139.42
	C379.13,162.88,316.71,100.46,239.71,100.46z M239.71,154.12c-18.84,0-36.71,5.99-51.69,17.32c-14.51,10.97-25.34,26.56-30.51,43.87
	c-2.14,7.16-8.7,11.79-15.81,11.79c-1.56,0-3.15-0.22-4.73-0.69c-8.74-2.61-13.7-11.8-11.1-20.54c7.16-24,22.16-45.58,42.23-60.76
	c20.76-15.7,45.52-24,71.61-24c9.12,0,16.51,7.39,16.51,16.51C256.22,146.73,248.83,154.12,239.71,154.12z"/>
</svg>
