<?xml version="1.0" encoding="utf-8"?>
<!-- Generator: Adobe Illustrator 25.2.0, SVG Export Plug-In . SVG Version: 6.00 Build 0)  -->
<svg version="1.1" id="Layer_1" xmlns="http://www.w3.org/2000/svg" xmlns:xlink="http://www.w3.org/1999/xlink" x="0px" y="0px"
	 viewBox="0 0 480 480" style="enable-background:new 0 0 480 480;" xml:space="preserve">
<path d="M99.99,179.96c-33.16,0-60.04,26.88-60.04,60.04c0,33.16,26.88,60.04,60.04,60.04s60.04-26.88,60.04-60.04
	C160.04,206.84,133.15,179.96,99.99,179.96z M99.99,203.06c-8.11,0-15.81,2.58-22.26,7.46c-6.25,4.73-10.91,11.44-13.14,18.9
	c-0.92,3.08-3.75,5.08-6.81,5.08c-0.67,0-1.36-0.1-2.04-0.3c-3.76-1.12-5.9-5.08-4.78-8.84c3.08-10.34,9.54-19.63,18.19-26.17
	c8.94-6.76,19.6-10.34,30.84-10.34c3.93,0,7.11,3.18,7.11,7.11C107.1,199.88,103.92,203.06,99.99,203.06z"/>
<path d="M322.48,222.75c-9.53,31.76,8.5,65.24,40.26,74.76s65.24-8.5,74.76-40.26c9.53-31.76-8.5-65.24-40.26-74.76
	C365.48,172.96,332.01,190.98,322.48,222.75z M385.84,195.77c1.13-3.76,5.09-5.89,8.85-4.77c10.76,3.23,19.95,9.72,26.57,18.76
	c6.4,8.75,9.91,19.5,9.9,30.29c-0.01,3.93-3.19,7.1-7.12,7.1c-0.71,0-1.39-0.11-2.04-0.3c-2.93-0.88-5.07-3.6-5.06-6.82
	c0.01-7.78-2.53-15.55-7.16-21.87c-4.78-6.53-11.41-11.21-19.18-13.54C386.84,203.49,384.71,199.53,385.84,195.77z"/>
</svg>
