<?xml version="1.0" encoding="utf-8"?>
<!-- Generator: Adobe Illustrator 25.2.0, SVG Export Plug-In . SVG Version: 6.00 Build 0)  -->
<svg version="1.1" id="Layer_1" xmlns="http://www.w3.org/2000/svg" xmlns:xlink="http://www.w3.org/1999/xlink" x="0px" y="0px"
	 viewBox="0 0 480 480" style="enable-background:new 0 0 480 480;" xml:space="preserve">
<style type="text/css">
	.st0{opacity:0.15;enable-background:new    ;}
</style>
<ellipse class="st0" cx="240" cy="414" rx="194" ry="38.8"/>
<g>
	<g>
		<path d="M239.87,65.17c49.91,0,90.51,40.6,90.51,90.51s-40.6,90.51-90.51,90.51s-90.51-40.6-90.51-90.51
			S189.96,65.17,239.87,65.17 M239.87,42.55c-62.48,0-113.13,50.65-113.13,113.13s50.65,113.13,113.13,113.13S353,218.16,353,155.68
			S302.35,42.55,239.87,42.55L239.87,42.55z"/>
	</g>
</g>
<g>
	<rect x="228.56" y="144.37" width="56.57" height="22.63"/>
</g>
<g>
	<polygon points="251.18,155.68 239.87,166.99 228.55,155.68 228.55,87.8 251.18,87.8 	"/>
</g>
</svg>
