<?xml version="1.0" encoding="utf-8"?>
<!-- Generator: Adobe Illustrator 25.2.0, SVG Export Plug-In . SVG Version: 6.00 Build 0)  -->
<svg version="1.1" id="Layer_1" xmlns="http://www.w3.org/2000/svg" xmlns:xlink="http://www.w3.org/1999/xlink" x="0px" y="0px"
	 viewBox="0 0 480 480" style="enable-background:new 0 0 480 480;" xml:space="preserve">
<polygon points="242.59,394.32 239.3,397.61 236.01,394.32 236.01,363 242.59,363 "/>
<g>
	<rect x="236.01" y="391.03" width="18.47" height="6.58"/>
</g>
<g>
	<g>
		<path d="M239.3,346.66c0.98,0,1.79,0.75,1.88,1.7c-0.02,0.12-0.03,0.25-0.04,0.37l-0.57,5.99l5.92,1.1
			c18.54,3.44,31.99,19.63,31.99,38.49c0,21.61-17.58,39.18-39.18,39.18s-39.18-17.58-39.18-39.18c0-18.86,13.46-35.05,31.99-38.49
			l5.92-1.1l-0.57-5.99c-0.01-0.12-0.03-0.25-0.04-0.37C237.51,347.41,238.32,346.66,239.3,346.66 M239.3,340.08
			c-4.68,0-8.47,3.79-8.47,8.47c0,0.27,0.06,0.53,0.08,0.8c-21.26,3.95-37.37,22.56-37.37,44.96c0,25.27,20.49,45.76,45.76,45.76
			s45.76-20.49,45.76-45.76c0-22.4-16.11-41.02-37.37-44.96c0.03-0.27,0.08-0.53,0.08-0.8C247.77,343.88,243.98,340.08,239.3,340.08
			L239.3,340.08z"/>
	</g>
</g>
<g>
	<g>
		<path d="M239.3,355.14c18.86,0,35.05,13.46,38.49,31.99l1.1,5.92l5.99-0.57c0.12-0.01,0.25-0.03,0.37-0.04
			c0.95,0.1,1.7,0.9,1.7,1.88s-0.75,1.79-1.7,1.88c-0.12-0.02-0.25-0.03-0.37-0.04l-5.99-0.57l-1.1,5.92
			c-3.44,18.54-19.63,31.99-38.49,31.99c-21.61,0-39.18-17.58-39.18-39.18S217.69,355.14,239.3,355.14 M239.3,348.56
			c-25.27,0-45.76,20.49-45.76,45.76s20.49,45.76,45.76,45.76c22.4,0,41.02-16.11,44.96-37.37c0.27,0.03,0.53,0.08,0.8,0.08
			c4.68,0,8.47-3.79,8.47-8.47s-3.79-8.47-8.47-8.47c-0.27,0-0.53,0.06-0.8,0.08C280.32,364.67,261.71,348.56,239.3,348.56
			L239.3,348.56z"/>
	</g>
</g>
<g>
	<g>
		<path d="M239.3,46.58c4.03,0,7.31,3.28,7.31,7.31s-3.28,7.31-7.31,7.31s-7.31-3.28-7.31-7.31S235.27,46.58,239.3,46.58 M239.3,40
			c-7.67,0-13.89,6.22-13.89,13.89s6.22,13.89,13.89,13.89s13.89-6.22,13.89-13.89S246.97,40,239.3,40L239.3,40z"/>
	</g>
</g>
<g>
	<rect x="236.01" y="67.77" width="6.58" height="272.31"/>
</g>
</svg>
