<?xml version="1.0" encoding="utf-8"?>
<!-- Generator: Adobe Illustrator 25.2.0, SVG Export Plug-In . SVG Version: 6.00 Build 0)  -->
<svg version="1.1" id="Layer_1" xmlns="http://www.w3.org/2000/svg" xmlns:xlink="http://www.w3.org/1999/xlink" x="0px" y="0px"
	 viewBox="0 0 480 480" style="enable-background:new 0 0 480 480;" xml:space="preserve">
<style type="text/css">
	.st0{fill:#FFFFFF;}
</style>
<g>
	<g>
		<path class="st0" d="M240,59.7l104.36,104.36L309.5,286.08H240h-69.49l-34.86-122.02L240,59.7 M240,40L120,160l40,140h80h80
			l40-140L240,40L240,40z"/>
	</g>
</g>
<g>
	<g>
		<g>
			<path class="st0" d="M239.19,140c24.81,0,45,20.19,45,45s-20.19,45-45,45s-45-20.19-45-45S214.37,140,239.19,140 M239.19,125
				c-33.14,0-60,26.86-60,60s26.86,60,60,60s60-26.86,60-60S272.32,125,239.19,125L239.19,125z"/>
		</g>
	</g>
	<g>
		<polygon class="st0" points="246.67,185 239.19,191 231.7,185 231.7,149 246.67,149 		"/>
	</g>
	<g>
		<rect x="231.69" y="177.5" class="st0" width="33" height="15"/>
	</g>
</g>
<g>
	<rect x="232.5" y="287.6" class="st0" width="15" height="120.36"/>
</g>
<g>
	<path class="st0" d="M240.15,413.93c3.35,0,6.07,2.72,6.07,6.07s-2.72,6.07-6.07,6.07s-6.07-2.72-6.07-6.07
		S236.8,413.93,240.15,413.93 M240.15,400c-11.05,0-20,8.95-20,20s8.95,20,20,20s20-8.95,20-20S251.2,400,240.15,400L240.15,400z"/>
</g>
<g>
	
		<rect x="107.68" y="161.37" transform="matrix(0.7071 -0.7071 0.7071 0.7071 -83.3471 135.4424)" class="st0" width="28.28" height="13.93"/>
</g>
<g>
	
		<rect x="351.22" y="154.19" transform="matrix(0.7071 -0.7071 0.7071 0.7071 -14.1189 302.574)" class="st0" width="13.93" height="28.28"/>
</g>
</svg>
