<?xml version="1.0" encoding="utf-8"?>
<!-- Generator: Adobe Illustrator 25.2.0, SVG Export Plug-In . SVG Version: 6.00 Build 0)  -->
<svg version="1.1" id="Layer_1" xmlns="http://www.w3.org/2000/svg" xmlns:xlink="http://www.w3.org/1999/xlink" x="0px" y="0px"
	 viewBox="0 0 480 480" style="enable-background:new 0 0 480 480;" xml:space="preserve">
<style type="text/css">
	.st0{fill:#FFFFFF;}
</style>
<g>
	<g>
		<path class="st0" d="M240,59.7l104.36,104.36L309.5,286.08H240h-69.49l-34.86-122.02L240,59.7 M240,40L120,160l40,140h80h80
			l40-140L240,40L240,40z"/>
	</g>
</g>
<g>
	<g>
		<g>
			<path class="st0" d="M239.19,140c24.81,0,45,20.19,45,45s-20.19,45-45,45s-45-20.19-45-45S214.37,140,239.19,140 M239.19,125
				c-33.14,0-60,26.86-60,60s26.86,60,60,60s60-26.86,60-60S272.32,125,239.19,125L239.19,125z"/>
		</g>
	</g>
	<g>
		<polygon class="st0" points="246.67,185 239.19,191 231.7,185 231.7,149 246.67,149 		"/>
	</g>
	<g>
		<rect x="231.69" y="177.5" class="st0" width="33" height="15"/>
	</g>
</g>
<g>
	<rect x="192.5" y="287.6" class="st0" width="15" height="101.92"/>
</g>
<g>
	<rect x="272.5" y="287.6" class="st0" width="15" height="32.4"/>
</g>
<g>
	
		<rect x="107.68" y="161.37" transform="matrix(0.7071 -0.7071 0.7071 0.7071 -83.3471 135.4424)" class="st0" width="28.28" height="13.93"/>
</g>
<g>
	
		<rect x="351.22" y="154.19" transform="matrix(0.7071 -0.7071 0.7071 0.7071 -14.1189 302.574)" class="st0" width="13.93" height="28.28"/>
</g>
<g>
	<path class="st0" d="M280,367.5C279.99,367.5,279.99,367.5,280,367.5c-3.36,0-6.38-1.87-7.88-4.87l-10.8-21.61
		c-3.72-7.45-2.26-16.41,3.62-22.29c4.02-4.02,9.37-6.24,15.06-6.24c5.69,0,11.04,2.22,15.06,6.24c5.87,5.88,7.33,14.83,3.61,22.28
		l-10.8,21.62C286.37,365.64,283.35,367.5,280,367.5z M280,327.5c-1.68,0-3.27,0.66-4.46,1.85c-1.31,1.31-1.63,3.31-0.8,4.98
		l5.25,10.51l5.26-10.52c0.83-1.66,0.51-3.66-0.8-4.97C283.26,328.15,281.68,327.5,280,327.5z"/>
</g>
<g>
	<path class="st0" d="M200,437.02c-3.36,0-6.37-1.86-7.87-4.87l-10.8-21.61c-3.72-7.45-2.26-16.41,3.62-22.29l0,0
		c4.02-4.02,9.37-6.24,15.06-6.24c5.69,0,11.04,2.22,15.06,6.24c5.87,5.88,7.33,14.83,3.61,22.28l-10.8,21.61
		C206.37,435.16,203.35,437.02,200,437.02z M195.54,398.86c-1.31,1.31-1.63,3.31-0.8,4.98l5.25,10.51l5.26-10.52
		c0.83-1.66,0.51-3.66-0.81-4.98c-1.19-1.19-2.77-1.84-4.45-1.84C198.32,397.02,196.73,397.67,195.54,398.86z"/>
</g>
</svg>
