<?xml version="1.0" encoding="utf-8"?>
<!-- Generator: Adobe Illustrator 25.2.0, SVG Export Plug-In . SVG Version: 6.00 Build 0)  -->
<svg version="1.1" id="Layer_1" xmlns="http://www.w3.org/2000/svg" xmlns:xlink="http://www.w3.org/1999/xlink" x="0px" y="0px"
	 viewBox="0 0 480 480" style="enable-background:new 0 0 480 480;" xml:space="preserve">
<style type="text/css">
	.st0{fill:#FFFFFF;}
</style>
<g>
	<g>
		<path class="st0" d="M239.21,79.65c42.74,0,82.92,16.64,113.14,46.86s46.86,70.4,46.86,113.14s-16.64,82.92-46.86,113.14
			s-70.4,46.86-113.14,46.86s-82.92-16.64-113.14-46.86s-46.86-70.4-46.86-113.14s16.64-82.92,46.86-113.14
			S196.47,79.65,239.21,79.65 M239.21,39.65c-110.46,0-200,89.54-200,200s89.54,200,200,200s200-89.54,200-200
			S349.66,39.65,239.21,39.65L239.21,39.65z"/>
	</g>
</g>
<g>
	<circle class="st0" cx="239.21" cy="239.65" r="119.93"/>
</g>
</svg>
