<?xml version="1.0" encoding="utf-8"?>
<!-- Generator: Adobe Illustrator 25.2.0, SVG Export Plug-In . SVG Version: 6.00 Build 0)  -->
<svg version="1.1" id="Layer_1" xmlns="http://www.w3.org/2000/svg" xmlns:xlink="http://www.w3.org/1999/xlink" x="0px" y="0px"
	 viewBox="0 0 480 480" style="enable-background:new 0 0 480 480;" xml:space="preserve">
<style type="text/css">
	.st0{fill:none;stroke:#000000;stroke-width:40;stroke-miterlimit:10;}
</style>
<path class="st0" d="M346.83,80H133.5v1.46c0,56.61,26.54,109.14,73.08,147.22L220.41,240l-13.83,11.32
	C160.04,289.4,133.5,343.39,133.5,400v0h213.33v0c0-56.61-26.54-110.6-73.08-148.68L259.92,240l13.83-11.32
	C320.3,190.6,346.83,136.61,346.83,80L346.83,80z"/>
<path d="M252.04,282.47l-11.87-9.31l-11.87,9.31c-22.3,19.74-43.36,47.96-52.25,77.26h128.24
	C295.4,330.42,274.34,302.21,252.04,282.47z"/>
</svg>
