<?xml version="1.0" encoding="utf-8"?>
<!-- Generator: Adobe Illustrator 25.2.0, SVG Export Plug-In . SVG Version: 6.00 Build 0)  -->
<svg version="1.1" id="Layer_1" xmlns="http://www.w3.org/2000/svg" xmlns:xlink="http://www.w3.org/1999/xlink" x="0px" y="0px"
	 viewBox="0 0 480 480" style="enable-background:new 0 0 480 480;" xml:space="preserve">
<style type="text/css">
	.st0{opacity:0.5;}
	.st1{fill:#FFFFFF;}
</style>
<g class="st0">
	<path class="st1" d="M239.13,42.65c26.6,0,52.4,5.21,76.68,15.48c23.46,9.92,44.53,24.13,62.62,42.22s32.3,39.16,42.22,62.62
		c10.27,24.29,15.48,50.08,15.48,76.68s-5.21,52.4-15.48,76.68c-9.92,23.46-24.13,44.53-42.22,62.62s-39.16,32.3-62.62,42.22
		c-24.29,10.27-50.08,15.48-76.68,15.48s-52.4-5.21-76.68-15.48c-23.46-9.92-44.53-24.13-62.62-42.22s-32.3-39.16-42.22-62.62
		c-10.27-24.29-15.48-50.08-15.48-76.68s5.21-52.4,15.48-76.68c9.92-23.46,24.13-44.53,42.22-62.62s39.16-32.3,62.62-42.22
		C186.74,47.86,212.54,42.65,239.13,42.65 M239.13,39.65c-110.46,0-200,89.54-200,200s89.54,200,200,200s200-89.54,200-200
		S349.59,39.65,239.13,39.65L239.13,39.65z"/>
</g>
<g>
	<circle class="st1" cx="239.13" cy="239.65" r="80.51"/>
</g>
</svg>
