<?xml version="1.0" encoding="utf-8"?>
<!-- Generator: Adobe Illustrator 16.0.0, SVG Export Plug-In . SVG Version: 6.00 Build 0)  -->
<!DOCTYPE svg PUBLIC "-//W3C//DTD SVG 1.1//EN" "http://www.w3.org/Graphics/SVG/1.1/DTD/svg11.dtd">
<svg version="1.1" id="Layer_1" xmlns="http://www.w3.org/2000/svg" xmlns:xlink="http://www.w3.org/1999/xlink" x="0px" y="0px"
	 width="40px" height="40px" viewBox="75 36 40 40" enable-background="new 75 36 40 40" xml:space="preserve">
<circle fill="#F0F0F0" cx="95" cy="56" r="20"/>
<g>
	<path fill="#0052B4" d="M79.134,43.824c-1.571,2.044-2.755,4.4-3.445,6.959h10.405L79.134,43.824z"/>
	<path fill="#0052B4" d="M114.311,50.783c-0.689-2.559-1.874-4.915-3.445-6.959l-6.959,6.959H114.311z"/>
	<path fill="#0052B4" d="M75.689,61.218c0.69,2.56,1.875,4.915,3.445,6.959l6.959-6.959H75.689z"/>
	<path fill="#0052B4" d="M107.177,40.134c-2.044-1.571-4.4-2.755-6.96-3.445v10.404L107.177,40.134z"/>
	<path fill="#0052B4" d="M82.824,71.865c2.044,1.571,4.4,2.756,6.959,3.445V64.906L82.824,71.865z"/>
	<path fill="#0052B4" d="M89.783,36.689c-2.559,0.69-4.915,1.875-6.959,3.445l6.959,6.959V36.689z"/>
	<path fill="#0052B4" d="M100.218,75.311c2.559-0.689,4.915-1.874,6.959-3.445l-6.959-6.959V75.311z"/>
	<path fill="#0052B4" d="M103.906,61.218l6.959,6.959c1.571-2.044,2.756-4.399,3.445-6.959H103.906z"/>
</g>
<g>
	<path fill="#D80027" d="M114.83,53.392H97.608l0,0V36.169C96.755,36.058,95.884,36,95,36c-0.884,0-1.755,0.058-2.608,0.169v17.222
		l0,0H75.169C75.058,54.245,75,55.116,75,56c0,0.885,0.058,1.755,0.169,2.608h17.222l0,0V75.83C93.245,75.942,94.116,76,95,76
		c0.884,0,1.755-0.058,2.608-0.17V58.608l0,0h17.222C114.942,57.755,115,56.885,115,56C115,55.116,114.942,54.245,114.83,53.392z"/>
	<path fill="#D80027" d="M100.218,61.218l8.924,8.924c0.411-0.41,0.803-0.839,1.176-1.283l-7.641-7.641H100.218L100.218,61.218z"/>
	<path fill="#D80027" d="M89.783,61.218L89.783,61.218l-8.925,8.924c0.41,0.411,0.839,0.803,1.284,1.176l7.641-7.641V61.218z"/>
	<path fill="#D80027" d="M89.783,50.783L89.783,50.783l-8.925-8.925c-0.411,0.41-0.802,0.839-1.176,1.284l7.641,7.641H89.783
		L89.783,50.783z"/>
	<path fill="#D80027" d="M100.218,50.783l8.924-8.925c-0.41-0.411-0.839-0.802-1.283-1.176l-7.641,7.641V50.783z"/>
</g>
</svg>
