<?xml version="1.0" encoding="utf-8"?>
<!-- Generator: Adobe Illustrator 16.0.0, SVG Export Plug-In . SVG Version: 6.00 Build 0)  -->
<!DOCTYPE svg PUBLIC "-//W3C//DTD SVG 1.1//EN" "http://www.w3.org/Graphics/SVG/1.1/DTD/svg11.dtd">
<svg version="1.1" id="Layer_1" xmlns="http://www.w3.org/2000/svg" xmlns:xlink="http://www.w3.org/1999/xlink" x="0px" y="0px"
	 width="40px" height="40px" viewBox="75 36 40 40" enable-background="new 75 36 40 40" xml:space="preserve">
<circle fill="#F0F0F0" cx="95" cy="56" r="20"/>
<g>
	<path fill="#D80027" d="M94.13,56H115c0-1.805-0.24-3.554-0.689-5.217H94.13V56z"/>
	<path fill="#D80027" d="M94.13,45.565h17.934c-1.225-1.998-2.789-3.764-4.614-5.218H94.13V45.565z"/>
	<path fill="#D80027" d="M95,76c4.707,0,9.033-1.627,12.45-4.348h-24.9C85.967,74.373,90.293,76,95,76z"/>
	<path fill="#D80027" d="M77.936,66.435h34.129c0.983-1.604,1.745-3.356,2.246-5.218H75.689
		C76.19,63.078,76.953,64.831,77.936,66.435z"/>
</g>
<path fill="#0052B4" d="M84.265,39.123h1.822l-1.695,1.232l0.647,1.993l-1.695-1.231l-1.695,1.231l0.559-1.722
	c-1.493,1.244-2.801,2.7-3.879,4.323h0.584l-1.079,0.784c-0.168,0.28-0.33,0.565-0.484,0.854l0.515,1.586l-0.961-0.699
	c-0.239,0.507-0.458,1.024-0.654,1.553l0.567,1.748h2.096l-1.695,1.231L77.865,54l-1.695-1.232l-1.015,0.738
	C75.053,54.323,75,55.155,75,56h20c0-11.045,0-12.348,0-20C91.049,36,87.366,37.146,84.265,39.123z M85.039,54l-1.695-1.232
	L81.649,54l0.647-1.993l-1.695-1.231h2.095l0.648-1.993l0.647,1.993h2.095l-1.695,1.231L85.039,54z M84.392,46.181l0.647,1.993
	l-1.695-1.231l-1.695,1.231l0.647-1.993l-1.695-1.232h2.095l0.648-1.993l0.647,1.993h2.095L84.392,46.181z M92.213,54l-1.695-1.232
	L88.823,54l0.647-1.993l-1.695-1.231h2.096l0.647-1.993l0.647,1.993h2.095l-1.695,1.231L92.213,54z M91.565,46.181l0.647,1.993
	l-1.695-1.231l-1.695,1.231l0.647-1.993l-1.695-1.232h2.096l0.647-1.993l0.647,1.993h2.095L91.565,46.181z M91.565,40.355
	l0.647,1.993l-1.695-1.231l-1.695,1.231l0.647-1.993l-1.695-1.232h2.096l0.647-1.993l0.647,1.993h2.095L91.565,40.355z"/>
</svg>
