<?xml version="1.0" encoding="utf-8"?>
<!-- Generator: Adobe Illustrator 16.0.0, SVG Export Plug-In . SVG Version: 6.00 Build 0)  -->
<!DOCTYPE svg PUBLIC "-//W3C//DTD SVG 1.1//EN" "http://www.w3.org/Graphics/SVG/1.1/DTD/svg11.dtd">
<svg version="1.1" id="Layer_1" xmlns="http://www.w3.org/2000/svg" xmlns:xlink="http://www.w3.org/1999/xlink" x="0px" y="0px"
	 width="40px" height="40px" viewBox="75 36 40 40" enable-background="new 75 36 40 40" xml:space="preserve">
<path fill="#FFDA44" d="M75,56c0,2.446,0.44,4.79,1.244,6.957L95,64.695l18.756-1.738C114.56,60.79,115,58.446,115,56
	s-0.44-4.79-1.244-6.957L95,47.304l-18.756,1.739C75.44,51.21,75,53.554,75,56z"/>
<g>
	<path fill="#D80027" d="M113.756,49.043C110.93,41.428,103.6,36,95,36c-8.599,0-15.93,5.428-18.756,13.043H113.756z"/>
	<path fill="#D80027" d="M76.244,62.957C79.07,70.572,86.401,76,95,76c8.6,0,15.93-5.428,18.756-13.043H76.244z"/>
</g>
</svg>
