<?xml version="1.0" encoding="utf-8"?>
<!-- Generator: Adobe Illustrator 25.2.0, SVG Export Plug-In . SVG Version: 6.00 Build 0)  -->
<svg version="1.1" id="Layer_1" xmlns="http://www.w3.org/2000/svg" xmlns:xlink="http://www.w3.org/1999/xlink" x="0px" y="0px"
	 viewBox="0 0 480 480" style="enable-background:new 0 0 480 480;" xml:space="preserve">
<style type="text/css">
	.st0{fill:none;stroke:#FFFFFF;stroke-width:20;stroke-linecap:round;stroke-linejoin:round;stroke-miterlimit:10;}
</style>
<polyline class="st0" points="368.94,149.65 400.12,149.65 400.12,429.65 239.31,429.65 239.31,409.93 "/>
<path class="st0" d="M239.31,409.93c60.74-17.9,129.63,0,129.63,0v-280c0,0-69.63-20.28-129.63,0V409.93z"/>
<polygon class="st0" points="239.31,409.93 339.31,369.65 339.31,89.65 239.31,129.93 "/>
<polygon class="st0" points="239.31,409.93 299.31,349.65 299.31,69.65 239.31,129.93 "/>
<polygon class="st0" points="239.31,409.93 259.31,329.65 259.31,49.65 239.31,129.93 "/>
<polyline class="st0" points="109.68,149.65 78.49,149.65 78.49,429.65 239.31,429.65 239.31,409.93 "/>
<path class="st0" d="M239.31,409.93c-60.74-17.9-129.63,0-129.63,0v-280c0,0,69.63-20.28,129.63,0V409.93z"/>
<polygon class="st0" points="239.31,409.93 139.31,369.65 139.31,89.65 239.31,129.93 "/>
<polygon class="st0" points="239.31,409.93 179.31,349.65 179.31,69.65 239.31,129.93 "/>
<polygon class="st0" points="239.31,409.93 219.31,329.65 219.31,49.65 239.31,129.93 "/>
</svg>
