<?xml version="1.0" encoding="utf-8"?>
<!-- Generator: Adobe Illustrator 25.2.0, SVG Export Plug-In . SVG Version: 6.00 Build 0)  -->
<svg version="1.1" id="Layer_1" xmlns="http://www.w3.org/2000/svg" xmlns:xlink="http://www.w3.org/1999/xlink" x="0px" y="0px"
	 viewBox="0 0 480 480" style="enable-background:new 0 0 480 480;" xml:space="preserve">
<style type="text/css">
	.st0{fill:none;stroke:#FFFFFF;stroke-width:19.9883;stroke-miterlimit:10;}
	.st1{fill:#FFFFFF;}
</style>
<circle class="st0" cx="239.5" cy="239.65" r="79.95"/>
<g>
	<path class="st1" d="M245.91,189.75v12.13c7.22,0.73,13.3,2.67,18.25,5.81l-7.43,14.44c-4.28-3.27-8.49-4.91-12.63-4.91
		c-2.54,0-4.61,0.59-6.22,1.75c-1.6,1.17-2.41,2.49-2.41,3.96c0,1.34,0.64,2.61,1.91,3.81c1.26,1.2,2.94,2.17,5.01,2.91l5.92,2.01
		c6.62,2.27,11.4,5.06,14.34,8.37c2.95,3.31,4.41,7.61,4.41,12.89c0,3.21-0.37,6.05-1.1,8.52c-0.73,2.47-1.94,4.68-3.61,6.62
		c-1.67,1.94-3.87,3.64-6.57,5.11c-2.71,1.47-6.01,2.81-9.88,4.01v12.44h-9.22v-11.93c-2.07,0-4.28-0.25-6.62-0.75
		c-2.34-0.5-4.65-1.17-6.92-2.01c-2.28-0.83-4.4-1.8-6.37-2.91c-1.97-1.11-3.6-2.26-4.86-3.46l8.12-15.14
		c6.28,5.55,12.4,8.32,18.35,8.32c2.47,0,4.63-0.67,6.46-2.01c1.84-1.33,2.76-3.07,2.76-5.21c0-2.94-2.17-5.11-6.51-6.52l-5.72-1.81
		c-3.41-1.06-6.32-2.24-8.72-3.51c-2.41-1.27-4.38-2.74-5.92-4.41c-1.53-1.67-2.68-3.56-3.41-5.67c-0.73-2.11-1.1-4.52-1.1-7.27
		c0-2.88,0.42-5.65,1.26-8.32c0.83-2.67,2.11-5.06,3.81-7.17c1.71-2.11,3.83-3.88,6.37-5.32c2.54-1.44,5.55-2.32,9.03-2.66v-12.13
		H245.91z"/>
</g>
</svg>
