<?xml version="1.0" encoding="utf-8"?>
<!-- Generator: Adobe Illustrator 16.0.0, SVG Export Plug-In . SVG Version: 6.00 Build 0)  -->
<!DOCTYPE svg PUBLIC "-//W3C//DTD SVG 1.1//EN" "http://www.w3.org/Graphics/SVG/1.1/DTD/svg11.dtd">
<svg version="1.1" id="Layer_1" xmlns="http://www.w3.org/2000/svg" xmlns:xlink="http://www.w3.org/1999/xlink" x="0px" y="0px"
	 width="95px" height="56px" viewBox="0 0 95 56" enable-background="new 0 0 95 56" xml:space="preserve">
<g id="button_x5F_submenu">
	<polygon fill="#2C2442" points="89.829,0 5.171,0 0,5.171 0,50.829 5.171,56 89.829,56 95,50.829 95,5.171 	"/>
	<path fill="#18514D" d="M89,2H6L2,6v44l4,4h83l4-4V6L89,2z"/>
	<g>
		<polygon fill-rule="evenodd" clip-rule="evenodd" fill="#388F99" points="88.171,4 6.829,4 4,6.829 4,46 6,48 89,48 91,46 
			91,6.829 		"/>
	</g>
	<g>
		<polygon fill-rule="evenodd" clip-rule="evenodd" fill="#74C0C3" points="89,6 91,8 91,6.829 88.171,4 6.829,4 4,6.829 4,8 6,6 		
			"/>
	</g>
</g>
</svg>
