<?xml version="1.0" encoding="utf-8"?>
<!-- Generator: Adobe Illustrator 16.0.0, SVG Export Plug-In . SVG Version: 6.00 Build 0)  -->
<!DOCTYPE svg PUBLIC "-//W3C//DTD SVG 1.1//EN" "http://www.w3.org/Graphics/SVG/1.1/DTD/svg11.dtd">
<svg version="1.1" id="Layer_1" xmlns="http://www.w3.org/2000/svg" xmlns:xlink="http://www.w3.org/1999/xlink" x="0px" y="0px"
	 width="95px" height="56px" viewBox="0 0 95 56" enable-background="new 0 0 95 56" xml:space="preserve">
<g id="button_x5F_pale_x5F_active">
	<polygon fill="#2C2442" points="89.829,4 5.171,4 0,9.171 0,50.829 5.171,56 89.829,56 95,50.829 95,9.171 	"/>
	<path fill="#496A74" d="M89,6H6l-4,4v40l4,4h83l4-4V10L89,6z"/>
	<g>
		<polygon fill-rule="evenodd" clip-rule="evenodd" fill="#8FB8D2" points="88.171,8 6.829,8 4,10.829 4,48 6,50 89,50 91,48 
			91,10.829 		"/>
	</g>
	<g>
		<polygon fill-rule="evenodd" clip-rule="evenodd" fill="#9DCBE7" points="89,10 91,12 91,10.829 88.171,8 6.829,8 4,10.829 4,12 
			6,10 		"/>
	</g>
</g>
</svg>
