<?xml version="1.0" encoding="utf-8"?>
<!-- Generator: Adobe Illustrator 16.0.0, SVG Export Plug-In . SVG Version: 6.00 Build 0)  -->
<!DOCTYPE svg PUBLIC "-//W3C//DTD SVG 1.1//EN" "http://www.w3.org/Graphics/SVG/1.1/DTD/svg11.dtd">
<svg version="1.1" id="icons" xmlns="http://www.w3.org/2000/svg" xmlns:xlink="http://www.w3.org/1999/xlink" x="0px" y="0px"
	 width="44px" height="44px" viewBox="0 0 44 44" enable-background="new 0 0 44 44" xml:space="preserve">
<path display="none" fill="#FFFFFF" d="M28.787,39.303v-0.062c0-0.115,0.023-0.226,0.035-0.339c-2.11,0.854-4.409,1.337-6.822,1.337
	c-2.634,0-5.132-0.572-7.396-1.582c0.02,0.373,0.003,0.751-0.086,1.129c-0.093,0.392-0.248,0.803-0.495,1.126
	c-0.342,0.447-0.683,0.829-1.086,1.134C15.702,43.297,18.768,44,22,44c2.979,0,5.814-0.595,8.405-1.667
	C29.436,41.666,28.787,40.549,28.787,39.303z"/>
<path fill="#FFFFFF" d="M13.013,35.232c0,0,1.205-1.424,2.187-2.659c-4.148-1.236-5.7-3.8-5.7-3.8s0.317,0.223,0.918,0.539
	c0.031,0,0.063,0.029,0.126,0.062c0.093,0.062,0.189,0.097,0.285,0.159c0.824,0.441,1.615,0.822,2.375,1.107
	c1.33,0.538,2.945,1.045,4.782,1.394c2.438,0.444,5.321,0.634,8.424,0.034c1.521-0.288,3.104-0.729,4.718-1.396
	c1.142-0.41,2.407-1.045,3.736-1.93c0,0-1.616,2.627-5.89,3.829c0.98,1.204,2.151,2.597,2.151,2.597
	c7.218-0.188,9.942-4.879,9.942-4.844c0-10.387-4.688-18.81-4.688-18.81c-4.656-3.483-9.117-3.388-9.117-3.388L26.82,8.634
	c5.543,1.646,8.105,4.116,8.105,4.116c-3.392-1.835-6.715-2.723-9.816-3.104c-2.342-0.253-4.59-0.189-6.585,0.063
	c-0.19,0-0.35,0.03-0.538,0.063c-1.139,0.126-3.896,0.505-7.379,2.059c-1.203,0.506-1.932,0.918-1.932,0.918s2.661-2.564,8.52-4.243
	l-0.316-0.38c0,0-4.434-0.095-9.122,3.388c0,0-4.686,8.423-4.686,18.81C3.07,30.326,5.795,35.014,13.013,35.232z M27.896,20.13
	c1.838,0,3.322,1.583,3.322,3.575c0,1.997-1.451,3.58-3.322,3.58c-1.836,0-3.323-1.583-3.323-3.58
	C24.573,21.742,26.027,20.13,27.896,20.13z M15.99,20.13c1.869,0,3.354,1.583,3.325,3.575c0,1.997-1.457,3.58-3.325,3.58
	c-1.837,0-3.325-1.583-3.325-3.58C12.666,21.742,14.153,20.13,15.99,20.13z"/>
</svg>
