<?xml version="1.0" encoding="utf-8"?>
<!-- Generator: Adobe Illustrator 16.0.0, SVG Export Plug-In . SVG Version: 6.00 Build 0)  -->
<!DOCTYPE svg PUBLIC "-//W3C//DTD SVG 1.1//EN" "http://www.w3.org/Graphics/SVG/1.1/DTD/svg11.dtd">
<svg version="1.1" id="logo" xmlns="http://www.w3.org/2000/svg" xmlns:xlink="http://www.w3.org/1999/xlink" x="0px" y="0px"
	 width="500px" height="250px" viewBox="0 0 500 250" enable-background="new 0 0 500 250" xml:space="preserve">
<rect x="347.901" y="77.321" display="none" width="87.146" height="28.101"/>
<g>
	<path fill="#000002" d="M323.281,52.067c-0.896-0.933-2.113-1.428-3.352-1.428c-0.672,0-1.349,0.146-1.982,0.446
		c-1.03,0.487-2.119,0.734-3.236,0.734c-4.229,0-7.805-3.574-7.805-7.805v-0.338c0-0.585,0.072-1.18,0.215-1.769
		c0.461-1.898-0.316-3.883-1.945-4.963c-17.492-11.601-37.876-17.732-58.948-17.732c-13.088,0-25.873,2.342-37.999,6.96
		c-10.402,3.962-20.052,9.49-28.74,16.459l-15.933-15.098c-0.875-0.829-2.023-1.272-3.194-1.272c-0.472,0-0.948,0.072-1.412,0.22
		c-1.612,0.515-2.816,1.868-3.144,3.528l-2.067,10.524c-0.408,0.271-0.787,0.588-1.129,0.948c-0.384,0.406-0.707,0.849-0.97,1.318
		l-10.461,2.648c-1.641,0.415-2.926,1.69-3.354,3.328c-0.427,1.638,0.07,3.379,1.299,4.543l16.698,15.823
		c-1.673,2.656-3.231,5.389-4.662,8.176l-1.752-0.392l-3.574-9.949c-0.538-1.498-1.805-2.616-3.358-2.962l-27.822-6.21
		c-0.335-0.074-0.675-0.112-1.011-0.112c-1.317,0-2.591,0.561-3.482,1.572c-1.12,1.271-1.459,3.049-0.888,4.642L112.9,74
		c-0.211,0.439-0.375,0.907-0.482,1.392c-0.122,0.545-0.172,1.092-0.156,1.629l-7.621,7.641c-1.195,1.198-1.644,2.953-1.17,4.578
		c0.474,1.625,31.267,9.442,31.267,9.442c0.335,0.075,0.675,0.111,1.011,0.111c1.22,0,2.407-0.48,3.287-1.364l6.194-6.209
		c-3.846,11.15-5.791,22.817-5.791,34.78c0,11.936,1.957,23.658,5.814,34.84c3.73,10.812,9.161,20.915,16.143,30.032
		c0.879,1.146,2.242,1.819,3.687,1.819h0.022c3.914,0.013,7.481,0.951,10.882,2.871l4.896,3.781c2.581,2.66,4.349,5.69,5.396,9.248
		l0.231,1.719l0.341,2.537c0.182,1.355,0.954,2.563,2.108,3.299c17.103,10.887,36.906,16.642,57.269,16.642
		c15.239,0,29.959-3.146,43.754-9.349c1.662-0.748,2.732-2.397,2.738-4.219c0.014-4.218,3.588-7.779,7.805-7.779
		c1.301,0,2.603,0.348,3.764,1.008c0.714,0.406,1.506,0.607,2.294,0.607c0.97,0,1.935-0.304,2.747-0.9
		c13.246-9.717,24.232-22.545,31.773-37.098c3.848-7.425,6.812-15.302,8.812-23.41c2.058-8.347,3.103-16.976,3.103-25.648
		C353.016,98.303,342.456,72.046,323.281,52.067z"/>
	<path fill="#7294B7" d="M319.932,55.282c-1.594,0.754-3.365,1.181-5.221,1.181c-6.786,0-12.447-5.663-12.447-12.448v-0.338
		c0-0.983,0.121-1.941,0.346-2.862c-16.157-10.716-35.541-16.959-56.381-16.959c-56.413,0-102.145,45.732-102.145,102.146
		c0,23.339,7.828,44.848,21,62.049h0.022c4.816,0.016,9.305,1.229,13.467,3.643c1.8,1.393,3.601,2.783,5.4,4.174
		c3.307,3.328,5.595,7.254,6.862,11.773c0.206,1.529,0.412,3.062,0.617,4.592c15.83,10.076,34.621,15.916,54.776,15.916
		c14.912,0,29.078-3.197,41.851-8.94c0.021-6.769,5.675-12.407,12.447-12.407c2.187,0,4.254,0.592,6.057,1.616
		c25.34-18.588,41.791-48.58,41.791-82.414C348.373,98.553,337.547,73.636,319.932,55.282z"/>
	<path fill="#77829E" d="M146.125,127.145c0.237,21.455,7.127,41.774,19.98,58.893c4.787,0.173,9.319,1.482,13.486,3.898
		c0.077,0.045,0.151,0.096,0.223,0.148l5.4,4.173c0.07,0.054,0.137,0.112,0.2,0.177c3.538,3.562,6.02,7.82,7.376,12.656
		c0.025,0.092,0.044,0.186,0.058,0.278l0.49,3.649c15.848,9.879,34.114,15.096,52.89,15.096c13.874,0,27.286-2.779,39.887-8.262
		c0.324-3.312,1.794-6.406,4.222-8.826c2.754-2.746,6.372-4.258,10.188-4.258c2.009,0,4.009,0.435,5.854,1.266
		c11.978-9.02,21.918-20.768,28.798-34.043c7.233-13.963,10.983-29.045,11.156-44.846H146.125L146.125,127.145z"/>
	<g>
		<path fill="#B9DBDD" d="M172.647,176.648c-0.79,0.601-0.286,1.734,0.058,2.209c1.058,1.459,2.159,2.89,3.306,4.287
			c1.019,0.349,2.022,0.748,3.008,1.196c0.986,0.449,2.174,0.407,1.25-0.596c-1.86-2.019-3.617-4.111-5.265-6.276
			C174.614,176.957,173.639,175.896,172.647,176.648z"/>
		<path fill="#B9DBDD" d="M211.896,207.782c0.687-1.851-1.198-2.536-1.726-2.767c-5.477-2.383-10.653-5.281-15.493-8.668
			c-1.304-0.912-2.027-0.451-1.252,0.824c0.711,1.171,1.347,2.387,1.907,3.645c4.29,2.918,8.825,5.466,13.584,7.623
			C209.622,208.76,211.338,209.287,211.896,207.782z"/>
		<path fill="#B9DBDD" d="M224.591,209.881c-1.346-0.329-2.685-0.689-4.015-1.083c-0.877-0.259-2.701-0.591-3.242,0.923
			c-0.646,1.807,1.089,2.402,1.948,2.67c1.371,0.43,2.75,0.826,4.137,1.188c1.177,0.31,3.524,0.606,3.936-0.962
			C227.777,211.012,225.657,210.141,224.591,209.881z"/>
		<path fill="#B9DBDD" d="M319.699,177.139c-0.952-0.789-2.036,0.049-2.324,0.426c-2.581,3.386-5.421,6.596-8.52,9.613
			c-8.138,7.934-17.613,14.162-28.162,18.514c-10.92,4.502-22.517,6.783-34.466,6.783c-3.055,0-6.086-0.147-9.09-0.447
			c-1.205-0.118-3.793-0.213-4.056,1.568c-0.313,2.123,2.282,2.273,3.637,2.42c3.236,0.348,6.504,0.521,9.8,0.521
			c12.296,0,24.229-2.41,35.47-7.163c1.365-0.578,2.713-1.188,4.043-1.827c0.525-0.693,1.101-1.354,1.727-1.979
			c2.957-2.948,6.702-4.779,10.729-5.293c4.43-3.08,8.595-6.56,12.463-10.426c3.309-3.31,6.335-6.836,9.068-10.561
			C320.368,178.814,320.65,177.93,319.699,177.139z"/>
	</g>
	<path fill="#383F5C" d="M344.302,127.145c-0.011,0.969-0.036,1.937-0.077,2.902h-2.906c-0.473,11.422-2.947,22.506-7.387,33
		c-4.793,11.333-11.658,21.514-20.399,30.256c-3.091,3.09-6.359,5.94-9.796,8.551c-0.441,0.336-1.838,0.896-3.211,0.883
		c-4.356-0.047-8.484,1.724-11.623,4.852c-1.047,1.043-1.953,2.188-2.659,3.436c-0.793,1.401-2.272,2.389-2.97,2.683
		c-11.729,4.961-24.192,7.478-37.045,7.478s-25.317-2.517-37.046-7.478c-5.114-2.163-9.99-4.751-14.606-7.739
		c-1.484-4.936-4.077-9.296-7.721-12.964c-0.125-0.126-0.258-0.243-0.398-0.353l-5.4-4.172c-0.142-0.109-0.291-0.211-0.446-0.299
		c-2.967-1.722-6.108-2.914-9.39-3.576c-5.161-6.586-9.416-13.799-12.697-21.556c-4.439-10.493-6.914-21.578-7.387-33h-2.9
		c-0.039-0.965-0.069-1.933-0.08-2.901h-4.062c0.251,22.896,8.031,43.984,20.988,60.903h0.022c4.816,0.015,9.305,1.229,13.467,3.644
		c1.8,1.392,3.601,2.781,5.4,4.173c3.307,3.329,5.595,7.254,6.862,11.774c0.206,1.528,0.412,3.061,0.617,4.592
		c15.83,10.076,34.621,15.914,54.776,15.914c14.912,0,29.078-3.196,41.851-8.939c0.021-6.768,5.675-12.407,12.447-12.407
		c2.187,0,4.255,0.593,6.057,1.616c25.053-18.379,41.415-47.904,41.782-81.27h-4.062V127.145z"/>
	<path fill="#77829E" d="M347.209,126.46h-1.161c-0.036,7.957-1.008,15.868-2.896,23.521c-1.869,7.576-4.639,14.938-8.234,21.875
		c-6.432,12.414-15.547,23.484-26.504,32.231c-0.684,0.546-2.312,1.274-4.344,0.834c-1.17-0.254-2.353-0.444-3.545-0.444
		c-3.895,0-7.586,1.541-10.396,4.342c-1.825,1.822-3.062,4.033-3.807,6.396c-0.548,1.738-2.146,3.146-2.983,3.48
		c-11.787,4.73-24.251,7.127-37.113,7.127c-18.153,0-35.829-4.891-51.291-14.168c-0.445-0.268-1.267-0.979-1.559-2.527
		c-0.088-0.467-0.242-1.798-0.242-1.798c-0.015-0.106-0.037-0.215-0.066-0.317c-1.37-4.886-3.876-9.187-7.45-12.783
		c-0.071-0.072-0.148-0.14-0.228-0.201l-4.542-3.51l-0.858-0.664c-0.081-0.062-0.166-0.119-0.255-0.17
		c-3.524-2.045-7.34-3.066-11.286-3.762c-2.017-0.354-3.102-1.396-3.544-2.015c-5.562-7.794-9.953-16.304-13.07-25.341
		c-3.556-10.305-5.379-21.105-5.429-32.107h-1.161h-1.161c0.103,23.16,7.91,44.502,20.996,61.589h0.022
		c4.816,0.015,9.305,1.229,13.467,3.644c1.8,1.392,3.601,2.781,5.4,4.173c3.307,3.329,5.595,7.254,6.862,11.774
		c0.206,1.528,0.412,3.061,0.617,4.592c15.83,10.076,34.621,15.914,54.776,15.914c14.912,0,29.077-3.196,41.851-8.939
		c0.021-6.768,5.675-12.407,12.447-12.407c2.187,0,4.254,0.593,6.057,1.616c25.225-18.504,41.639-48.309,41.787-81.954H347.209
		L347.209,126.46z"/>
	<g>
		<path fill="#A8434D" d="M246.519,210.732c-22.634,0-43.913-8.812-59.917-24.816c-16.004-16.005-24.818-37.283-24.818-59.916
			s8.814-43.912,24.818-59.916s37.283-24.818,59.917-24.818c22.633,0,43.911,8.814,59.915,24.818s24.818,37.283,24.818,59.916
			s-8.814,43.911-24.818,59.916C290.43,201.92,269.15,210.732,246.519,210.732z"/>
		<path d="M246.519,43.007c45.834,0,82.992,37.158,82.992,82.993c0,45.836-37.157,82.993-82.992,82.993
			c-45.836,0-82.993-37.157-82.993-82.993C163.525,80.165,200.682,43.007,246.519,43.007L246.519,43.007z M246.519,39.525
			c-11.673,0-22.999,2.287-33.662,6.796c-10.298,4.355-19.545,10.59-27.485,18.531c-7.941,7.94-14.176,17.189-18.531,27.487
			c-4.51,10.663-6.797,21.988-6.797,33.661s2.287,22.998,6.797,33.66c4.355,10.298,10.59,19.547,18.531,27.486
			c7.94,7.94,17.188,14.176,27.485,18.53c10.664,4.511,21.989,6.798,33.662,6.798c11.672,0,22.999-2.287,33.661-6.798
			c10.297-4.354,19.545-10.59,27.485-18.53c7.94-7.939,14.175-17.188,18.53-27.486c4.511-10.662,6.798-21.987,6.798-33.66
			s-2.287-22.998-6.798-33.661c-4.355-10.298-10.59-19.546-18.53-27.487s-17.188-14.175-27.485-18.531
			C269.518,41.812,258.189,39.525,246.519,39.525L246.519,39.525z"/>
	</g>
	
		<linearGradient id="SVGID_1_" gradientUnits="userSpaceOnUse" x1="590.7568" y1="-181.4883" x2="590.7568" y2="-62.1372" gradientTransform="matrix(1 0 0 -1 -301 1)">
		<stop  offset="0" style="stop-color:#A8434D"/>
		<stop  offset="1" style="stop-color:#CE8A67"/>
	</linearGradient>
	<path fill="url(#SVGID_1_)" d="M297.43,68.761c-1.113,0.662-2.396,1.024-3.709,1.024h-0.645c-1.912,0-3.768-0.769-5.118-2.12
		c-1.353-1.353-2.121-3.207-2.121-5.12c0-0.717,0.108-1.427,0.315-2.105c-2.711-1.643-5.527-3.128-8.445-4.43
		c-0.076,0.416-0.152,0.831-0.229,1.245c-1.384,7.57-2.812,15.398-2.812,19.993V197.27c11.768-4.65,22.104-12.137,30.18-21.608
		V76.338C302.55,73.645,300.07,71.113,297.43,68.761z"/>
	
		<linearGradient id="SVGID_2_" gradientUnits="userSpaceOnUse" x1="483.6777" y1="-181.4883" x2="483.6777" y2="-62.1378" gradientTransform="matrix(1 0 0 -1 -301 1)">
		<stop  offset="0" style="stop-color:#A8434D"/>
		<stop  offset="1" style="stop-color:#CE8A67"/>
	</linearGradient>
	<path fill="url(#SVGID_2_)" d="M169.619,126c0,22.966,10.108,43.57,26.116,57.609V68.39C179.728,82.43,169.619,103.034,169.619,126
		z"/>
	
		<linearGradient id="SVGID_3_" gradientUnits="userSpaceOnUse" x1="517.1875" y1="-181.4893" x2="517.1875" y2="-62.1379" gradientTransform="matrix(1 0 0 -1 -301 1)">
		<stop  offset="0" style="stop-color:#A8434D"/>
		<stop  offset="1" style="stop-color:#CE8A67"/>
	</linearGradient>
	<path fill="url(#SVGID_3_)" d="M228.736,64.149c-0.918-3.64-1.926-7.637-2.823-12.03c-9.346,2.564-17.98,6.849-25.535,12.501
		v24.705c0.874,0.551,1.692,1.197,2.431,1.937c0.215,0.215,0.43,0.43,0.644,0.645c2.634,2.634,4.132,6.249,4.132,9.975
		c0,3.727-1.498,7.341-4.132,9.975c-0.917,0.918-1.956,1.693-3.075,2.32v73.201c7.578,5.67,16.241,9.964,25.621,12.524
		c0.564-42.004,3.839-100.368,5.743-113.697C232.667,79.732,230.932,72.856,228.736,64.149z"/>
	
		<linearGradient id="SVGID_4_" gradientUnits="userSpaceOnUse" x1="552.7227" y1="-181.4902" x2="552.7227" y2="-62.1373" gradientTransform="matrix(1 0 0 -1 -301 1)">
		<stop  offset="0" style="stop-color:#A8434D"/>
		<stop  offset="1" style="stop-color:#CE8A67"/>
	</linearGradient>
	<path fill="url(#SVGID_4_)" d="M272.621,56.421c0.135-0.734,0.27-1.472,0.402-2.208c-8.342-3.116-17.369-4.823-26.796-4.823
		c-5.418,0-10.705,0.566-15.806,1.637c0.873,4.277,1.871,8.232,2.817,11.986c2.229,8.838,4.154,16.47,3.1,23.85
		c-1.904,13.334-5.193,72.258-5.71,114.155c5.037,1.043,10.254,1.592,15.6,1.592c8.2,0,16.099-1.295,23.506-3.68V77.249
		C269.732,72.233,271.136,64.553,272.621,56.421z"/>
	
		<linearGradient id="SVGID_5_" gradientUnits="userSpaceOnUse" x1="617.0176" y1="-181.4897" x2="617.0176" y2="-62.138" gradientTransform="matrix(1 0 0 -1 -301 1)">
		<stop  offset="0" style="stop-color:#A8434D"/>
		<stop  offset="1" style="stop-color:#CE8A67"/>
	</linearGradient>
	<path fill="url(#SVGID_5_)" d="M322.837,126c0-16.215-5.043-31.251-13.64-43.634v87.268
		C317.794,157.252,322.837,142.215,322.837,126z"/>
	<g>
		
			<linearGradient id="SVGID_6_" gradientUnits="userSpaceOnUse" x1="596.3418" y1="-123.4087" x2="596.3418" y2="-79.2168" gradientTransform="matrix(1 0 0 -1 -301 1)">
			<stop  offset="0" style="stop-color:#A8434D"/>
			<stop  offset="1" style="stop-color:#FFB58C"/>
		</linearGradient>
		<path fill="url(#SVGID_6_)" d="M297.43,68.761c-1.113,0.662-2.396,1.024-3.709,1.024h-0.645c-1.912,0-3.768-0.769-5.118-2.12
			c-1.144-1.143-1.867-2.646-2.063-4.238c-0.035,0.285-0.058,0.571-0.058,0.86c0,1.912,0.771,3.768,2.121,5.12
			c1.351,1.351,3.206,2.12,5.118,2.12h0.645c1.312,0,2.596-0.361,3.709-1.024c2.641,2.352,5.12,4.883,7.416,7.577v-1.741
			C302.55,73.645,300.07,71.113,297.43,68.761z"/>
		
			<linearGradient id="SVGID_7_" gradientUnits="userSpaceOnUse" x1="581.4102" y1="-123.4092" x2="581.4102" y2="-79.2171" gradientTransform="matrix(1 0 0 -1 -301 1)">
			<stop  offset="0" style="stop-color:#A8434D"/>
			<stop  offset="1" style="stop-color:#FFB58C"/>
		</linearGradient>
		<path fill="url(#SVGID_7_)" d="M286.152,60.44c-2.711-1.643-5.527-3.128-8.445-4.43c-0.076,0.416-0.152,0.831-0.229,1.245
			c-1.383,7.57-2.812,15.398-2.812,19.993v1.741c0-4.594,3.938-20.833,4.383-20.623c2.338,1.1,4.607,2.319,6.811,3.639
			C285.898,61.473,285.998,60.948,286.152,60.44z"/>
		
			<linearGradient id="SVGID_8_" gradientUnits="userSpaceOnUse" x1="483.6777" y1="-123.4092" x2="483.6777" y2="-79.2172" gradientTransform="matrix(1 0 0 -1 -301 1)">
			<stop  offset="0" style="stop-color:#A8434D"/>
			<stop  offset="1" style="stop-color:#FFB58C"/>
		</linearGradient>
		<path fill="url(#SVGID_8_)" d="M169.619,126c0,0.291,0.008,0.58,0.012,0.87c0.252-22.616,10.3-42.876,26.104-56.739V68.39
			C179.728,82.43,169.619,103.034,169.619,126z"/>
		
			<linearGradient id="SVGID_9_" gradientUnits="userSpaceOnUse" x1="517.1836" y1="-123.4102" x2="517.1836" y2="-79.2178" gradientTransform="matrix(1 0 0 -1 -301 1)">
			<stop  offset="0" style="stop-color:#A8434D"/>
			<stop  offset="1" style="stop-color:#FFB58C"/>
		</linearGradient>
		<path fill="url(#SVGID_9_)" d="M228.736,64.149c-0.918-3.64-1.926-7.637-2.823-12.03c-9.346,2.564-17.98,6.849-25.535,12.501
			v1.741c7.075-5.293,15.098-9.388,23.765-11.993c0.587-0.176,7.684,23.794,7.834,28.961
			C232.143,77.678,230.61,71.58,228.736,64.149z"/>
		
			<linearGradient id="SVGID_10_" gradientUnits="userSpaceOnUse" x1="504.9824" y1="-123.4087" x2="504.9824" y2="-79.2198" gradientTransform="matrix(1 0 0 -1 -301 1)">
			<stop  offset="0" style="stop-color:#A8434D"/>
			<stop  offset="1" style="stop-color:#FFB58C"/>
		</linearGradient>
		<path fill="url(#SVGID_10_)" d="M203.454,111.857c-0.917,0.918-1.956,1.693-3.075,2.32v1.74c1.12-0.625,2.158-1.402,3.075-2.319
			c2.634-2.634,4.132-6.249,4.132-9.976c0-0.291-0.013-0.581-0.03-0.87C207.341,106.167,205.882,109.43,203.454,111.857z"/>
		
			<linearGradient id="SVGID_11_" gradientUnits="userSpaceOnUse" x1="552.7227" y1="-123.4131" x2="552.7227" y2="-79.2181" gradientTransform="matrix(1 0 0 -1 -301 1)">
			<stop  offset="0" style="stop-color:#A8434D"/>
			<stop  offset="1" style="stop-color:#FFB58C"/>
		</linearGradient>
		<path fill="url(#SVGID_11_)" d="M230.421,51.027c0.115,0.563,0.232,1.12,0.351,1.672c4.993-1.022,10.16-1.567,15.455-1.567
			c9.316,0,18.24,1.669,26.5,4.715c0.1-0.543,0.198-1.088,0.297-1.633c-8.342-3.116-17.369-4.823-26.796-4.823
			C240.809,49.391,235.522,49.957,230.421,51.027z"/>
		
			<linearGradient id="SVGID_12_" gradientUnits="userSpaceOnUse" x1="617.0176" y1="-123.4092" x2="617.0176" y2="-79.2171" gradientTransform="matrix(1 0 0 -1 -301 1)">
			<stop  offset="0" style="stop-color:#A8434D"/>
			<stop  offset="1" style="stop-color:#FFB58C"/>
		</linearGradient>
		<path fill="url(#SVGID_12_)" d="M309.197,82.366v1.741c8.441,12.161,13.453,26.881,13.631,42.763
			c0.004-0.29,0.009-0.58,0.009-0.87C322.837,109.785,317.794,94.749,309.197,82.366z"/>
	</g>
	<g>
		
			<linearGradient id="SVGID_13_" gradientUnits="userSpaceOnUse" x1="499.0566" y1="-218.2661" x2="499.0566" y2="-63.1143" gradientTransform="matrix(1 0 0 -1 -301 1)">
			<stop  offset="0" style="stop-color:#6F1C24"/>
			<stop  offset="1" style="stop-color:#A8434D"/>
		</linearGradient>
		<path fill="url(#SVGID_13_)" d="M195.735,192.036c1.508,1.163,3.057,2.276,4.643,3.336V64.113
			c-1.598,1.201-3.145,2.468-4.643,3.788V192.036z"/>
		
			<linearGradient id="SVGID_14_" gradientUnits="userSpaceOnUse" x1="532.2734" y1="-235.5166" x2="532.2734" y2="-49.4476" gradientTransform="matrix(1 0 0 -1 -301 1)">
			<stop  offset="0" style="stop-color:#6F1C24"/>
			<stop  offset="1" style="stop-color:#A8434D"/>
		</linearGradient>
		<path fill="url(#SVGID_14_)" d="M230.421,50.447c-1.52,0.32-3.022,0.688-4.508,1.097c0.897,4.417,1.905,8.436,2.823,12.094
			c2.196,8.753,3.931,15.667,3.006,22.175c-1.608,11.316-4.194,75.826-5.299,121.048c1.522,0.375,3.061,0.709,4.614,0.998
			c1.082-45.277,3.673-110.076,5.28-121.387c1.054-7.418-0.871-15.091-3.1-23.977C232.292,58.723,231.294,54.747,230.421,50.447z"/>
		
			<linearGradient id="SVGID_15_" gradientUnits="userSpaceOnUse" x1="574.5752" y1="-232.5635" x2="574.5752" y2="-52.6498" gradientTransform="matrix(1 0 0 -1 -301 1)">
			<stop  offset="0" style="stop-color:#6F1C24"/>
			<stop  offset="1" style="stop-color:#A8434D"/>
		</linearGradient>
		<path fill="url(#SVGID_15_)" d="M272.621,55.87c-1.484,8.175-2.889,15.896-2.889,20.938v129.047
			c1.566-0.465,3.117-0.972,4.643-1.524V76.808c0-4.62,1.432-12.489,2.812-20.099c0.078-0.416,0.152-0.834,0.229-1.253
			c-1.439-0.646-2.904-1.248-4.393-1.807C272.891,54.391,272.756,55.132,272.621,55.87z"/>
		
			<linearGradient id="SVGID_16_" gradientUnits="userSpaceOnUse" x1="607.877" y1="-204.061" x2="607.877" y2="-74.8932" gradientTransform="matrix(1 0 0 -1 -301 1)">
			<stop  offset="0" style="stop-color:#6F1C24"/>
			<stop  offset="1" style="stop-color:#A8434D"/>
		</linearGradient>
		<path fill="url(#SVGID_16_)" d="M304.555,75.893v109.276c1.614-1.604,3.164-3.271,4.644-5.003V81.953
			C307.748,79.854,306.199,77.832,304.555,75.893z"/>
	</g>
	<path fill="#B9D7DF" d="M342.969,96.94c-4.467-14.919-12.373-28.687-23.318-40.27c-1.58,0.633-3.237,0.953-4.938,0.953
		c-3.592,0-6.996-1.427-9.589-4.02c-2.592-2.591-4.02-5.997-4.02-9.589v-0.338c0-0.775,0.068-1.555,0.207-2.327
		c-16.391-10.689-35.418-16.333-55.083-16.333c-13.633,0-26.858,2.67-39.307,7.936c-12.025,5.086-22.825,12.368-32.1,21.642
		c-9.275,9.275-16.557,20.075-21.643,32.1c-0.468,1.106-0.912,2.218-1.338,3.335c2.111-0.229,4.231-0.402,6.325-0.577
		c1.786-0.148,3.573-0.259,5.36-0.317c4.517-9.798,10.794-18.627,18.682-26.263c8.314-8.047,17.995-14.365,28.777-18.779
		c11.166-4.571,23.022-6.889,35.243-6.889s24.078,2.318,35.244,6.889c10.781,4.414,20.463,10.732,28.775,18.779
		c8.314,8.047,14.841,17.419,19.4,27.855c0.742,1.699,1.426,3.417,2.052,5.148c0.3,0.83,1.823,4.267,5.405,4.903
		C343.02,101.828,343.291,98.016,342.969,96.94z"/>
	<g>
		<path fill="#FFFFFF" d="M207.008,33.215c-12.024,5.085-22.825,12.367-32.099,21.643c-2.561,2.561-4.964,5.243-7.218,8.031
			c0.216-0.018,14.512-2.806,19.707-4.328c7.092-5.898,15.029-10.665,23.675-14.205c11.165-4.571,23.023-6.888,35.244-6.888
			c3.826,0,7.617,0.228,11.363,0.68c6.997-2.419,13.951-4.963,20.864-7.615c-10.304-3.466-21.165-5.253-32.228-5.253
			C232.682,25.279,219.457,27.949,207.008,33.215z"/>
		<path fill="#FFFFFF" d="M158.073,77.125c-1.771,3.178-3.378,6.454-4.807,9.832c-1.185,2.801-2.221,5.647-3.157,8.517
			c-0.854,2.623,1.897,4.049,4.053,4.049c2.369,0,5.492-0.754,7.108-4.54c0.562-1.318,1.047-2.673,1.624-3.994
			c2.138-4.891,4.713-9.545,7.695-13.942C166.45,77.527,162.188,77.748,158.073,77.125z"/>
		<path fill="#FFFFFF" d="M301.189,44.279V43.94c0-0.775,0.07-1.555,0.209-2.327c-1.502-0.979-3.025-1.915-4.569-2.809
			c-4.879,1.979-9.776,3.914-14.692,5.796c4.025,1.679,7.904,3.613,11.598,5.831c4.818,2.895,8.229-1.988,7.726-3.478
			C301.283,46.08,301.189,45.186,301.189,44.279z"/>
	</g>
	<g>
		<g>
			<g>
				<polygon fill="#7093B1" points="178.461,63.708 157.77,44.102 160.362,30.904 181.054,50.51 				"/>
			</g>
			<g>
				<polygon fill="#B8DBDF" points="173.435,43.29 170.842,56.488 175.375,60.784 177.968,47.586 				"/>
			</g>
			<g>
				<polygon fill="#B8DBDF" points="164.145,34.489 161.552,47.686 166.085,51.983 168.678,38.785 				"/>
			</g>
			<g>
				<polygon fill="#7093B1" points="176.049,66.255 155.357,46.647 142.317,49.948 163.01,69.554 				"/>
			</g>
			<g>
				<polygon fill="#B8DBDF" points="155.39,62.335 168.429,59.035 172.963,63.331 159.923,66.631 				"/>
			</g>
			<g>
				<polygon fill="#B8DBDF" points="146.1,53.532 159.14,50.232 163.673,54.528 150.634,57.828 				"/>
			</g>
			<g>
				<path fill="#58192A" d="M198.234,86.672c-0.474,0-0.948-0.175-1.32-0.526l-40.861-38.758c-0.769-0.73-0.802-1.944-0.073-2.714
					c0.729-0.769,1.943-0.802,2.712-0.072l40.861,38.758c0.769,0.728,0.802,1.943,0.073,2.712
					C199.25,86.471,198.742,86.672,198.234,86.672z"/>
			</g>
			<g>
				<circle fill="#DD7E6A" cx="157.431" cy="46.05" r="1.919"/>
			</g>
		</g>
		<g>
			<g>
				<polygon fill="#7093B1" points="146.012,81.204 118.191,74.994 113.644,62.336 141.465,68.546 				"/>
			</g>
			<g>
				<polygon fill="#B8DBDF" points="131.22,66.258 135.767,78.917 141.862,80.278 137.315,67.619 				"/>
			</g>
			<g>
				<polygon fill="#B8DBDF" points="118.729,63.47 123.276,76.129 129.372,77.49 124.825,64.831 				"/>
			</g>
			<g>
				<polygon fill="#7093B1" points="145.248,84.627 117.426,78.417 107.928,87.94 135.749,94.15 				"/>
			</g>
			<g>
				<polygon fill="#B8DBDF" points="125.504,91.863 135.003,82.341 141.099,83.702 131.6,93.225 				"/>
			</g>
			<g>
				<polygon fill="#B8DBDF" points="113.014,89.076 122.512,79.553 128.608,80.913 119.11,90.437 				"/>
			</g>
			<g>
				<path fill="#58192A" d="M198.57,96.051c-0.406,0.243-0.903,0.336-1.402,0.226l-78.765-17.582
					c-1.035-0.232-1.686-1.258-1.455-2.292c0.231-1.035,1.256-1.686,2.291-1.454l78.764,17.582c1.034,0.231,1.686,1.257,1.455,2.291
					C199.34,95.357,199.007,95.79,198.57,96.051z"/>
			</g>
			<g>
				<circle fill="#DD7E6A" cx="118.9" cy="76.839" r="1.919"/>
			</g>
		</g>
	</g>
	<path fill="#7A2230" d="M178.12,172.973c0.561,0.785,1.948,2.756,2.534,3.521h131.729c0.586-0.765,1.874-2.476,2.436-3.261
		L178.12,172.973z"/>
</g>
<g id="Layer_2_copy">
	<path d="M491.725,110.148l-8.558-8.558l-36.928,0.648l-6.458,6.458l-6.526-6.526l-87.204,1.257v3.615l-3.257-3.408l-34.149,0.353
		l-8.442,8.833v30.301h-13.058v-14.51h2.03v-24.375l-115.203-0.291v1.56l-1.542-1.542l-36.927-0.324l-1.576,1.576v-2.074
		l-125.65-2.224v24.503h2.321v28.146H8.276v24.564l125.65-3.22V172.9l1.576,1.576l36.927-0.324l1.542-1.543v1.271H298.46
		l134.794,2.354l5.946-5.945l7.038,7.04l36.928,0.646l8.558-8.557L491.725,110.148L491.725,110.148z M58.768,150.346l-6.157-13.582
		l5.455-10.184h0.702V150.346L58.768,150.346z M230.268,149.505h-4.643v-20.894h4.643V149.505L230.268,149.505z M261.025,149.505
		h-4.642v-20.894h4.642V149.505L261.025,149.505z"/>
</g>
<g>
	<path fill="#FF6212" d="M464.737,121.357l-5.805,4.252v8.517h22.345l5.804,5.804v27.567l-5.804,5.803l-33.081-0.579l-5.805-5.805
		v-13.059h16.541v2.031l5.805,5.805l5.804-5.805v-7.256h-22.345l-5.805-6.674v-25.827l5.805-5.804l33.081-0.579l5.804,5.804v13.349
		h-16.54v-2.322L464.737,121.357L464.737,121.357z"/>
	<path fill="#FF6212" d="M440.071,119.035v43.818l-8.705,8.705l-33.081-0.58v-11.607h1.741v-36.854h-1.741V110.91l33.081-0.581
		L440.071,119.035L440.071,119.035z M417.146,158.21l6.384-2.319V126.29l-6.384-2.612V158.21L417.146,158.21z"/>
	<polygon fill="#FF6212" points="395.963,122.518 395.963,110.91 374.779,111.2 374.779,122.518 376.521,122.518 376.521,135.576 
		370.137,129.191 370.137,122.518 372.459,122.518 372.459,111.2 350.695,111.49 350.695,122.518 353.016,122.518 353.016,159.371 
		350.695,159.371 350.695,170.396 372.459,170.688 372.459,159.371 370.137,159.371 370.137,144.861 376.521,151.245 
		376.521,159.371 374.199,159.371 374.199,170.688 395.963,170.979 395.963,159.371 393.641,159.371 393.641,122.518 	"/>
	<path fill="#FF6212" d="M346.632,158.501v-40.647l-5.804-6.072l-30.18,0.311l-5.803,6.073v39.755h-1.742v11.606h21.475V157.92
		h-1.741v-8.995h5.804v9.285h-1.742v11.608l21.476,0.289v-11.606H346.632L346.632,158.501z M328.641,137.607h-5.804V126.29h5.804
		V137.607L328.641,137.607z"/>
	<path fill="#FF6212" d="M263.93,169.238V157.63h1.74v-33.661h-1.74v-11.607h20.604v11.607h-2.031v33.08h3.48v-5.804h14.801v17.993
		H263.93L263.93,169.238z"/>
	<polygon fill="#FF6212" points="261.607,123.969 261.607,112.361 225.044,112.361 225.044,123.969 234.911,123.969 234.911,157.63 
		233.169,157.63 233.169,169.238 253.48,169.238 253.48,157.63 251.741,157.63 251.741,123.969 	"/>
	<polygon fill="#FF6212" points="222.723,123.678 222.723,112.071 202.119,112.071 202.119,123.678 203.861,123.678 
		203.861,132.384 197.477,132.384 197.477,123.678 199.218,123.678 199.218,112.071 178.615,112.071 178.615,123.678 
		180.355,123.678 180.355,157.92 178.615,157.92 178.615,169.527 199.218,169.527 199.218,157.92 197.477,157.92 197.477,149.215 
		203.861,149.215 203.861,157.92 202.119,157.92 202.119,169.527 222.723,169.527 222.723,157.92 220.981,157.92 220.981,123.678 	
		"/>
	<path fill="#FF6212" d="M176.293,133.545h-16.831v-4.062l-5.804-5.804l-5.804,5.804v22.636l5.804,5.803l5.804-5.803v-2.902h-5.804
		V138.48h22.634v25.244l-5.804,5.805l-33.081,0.291l-5.804-5.805v-46.43l5.804-5.804l33.081,0.29l5.804,5.803L176.293,133.545
		L176.293,133.545L176.293,133.545z"/>
	<path fill="#FF6212" d="M110.421,122.518h-1.741V110.91l20.604,0.29v11.607h-1.741v35.983h1.741v11.606l-20.604,0.58V159.37h1.741
		V122.518L110.421,122.518z"/>
	<polygon fill="#FF6212" points="106.358,121.938 106.358,110.91 85.175,110.62 85.175,121.938 86.916,121.938 86.916,135.576 
		80.532,129.191 80.532,121.938 82.854,121.938 82.854,110.62 61.089,110.329 61.089,121.938 63.411,121.938 63.411,159.951 
		61.089,159.951 61.089,171.559 82.854,171.27 82.854,159.951 80.532,159.951 80.532,144.861 86.916,151.245 86.916,159.951 
		84.595,159.951 84.595,171.27 106.358,170.979 106.358,159.951 104.037,159.951 104.037,121.938 	"/>
	<path fill="#FF6212" d="M46.581,138.188l9.866,21.765h2.321v11.606l-19.732,0.582v-8.996l-6.674-17.992v16.541h2.322v10.736
		L12.92,173.3v-11.606h2.321v-40.916H12.92V109.17l21.474,0.58v11.027h-2.321v14.219l6.964-14.8V110.04l18.572,0.289v11.608h-2.322
		L46.581,138.188L46.581,138.188z"/>
</g>
<g>
	<path fill="#FFEB3D" d="M464.737,117.874l-5.805,4.255v8.514h22.345l5.804,5.805v27.566l-5.804,5.805l-33.081-0.58l-5.805-5.805
		v-13.059h16.541v2.031l5.805,5.804l5.804-5.804v-7.254h-22.345l-5.805-6.674v-25.828l5.805-5.804l33.081-0.58l5.804,5.804v13.349
		h-16.54v-2.322L464.737,117.874L464.737,117.874z"/>
	<path fill="#FFEB3D" d="M440.071,115.554v43.817l-8.705,8.706l-33.081-0.58v-11.606h1.741v-36.854h-1.741V107.43l33.081-0.581
		L440.071,115.554L440.071,115.554z M417.146,154.729l6.384-2.321v-29.599l-6.384-2.611V154.729L417.146,154.729z"/>
	<polygon fill="#FFEB3D" points="395.963,119.035 395.963,107.429 374.779,107.718 374.779,119.035 376.521,119.035 
		376.521,132.094 370.137,125.709 370.137,119.035 372.459,119.035 372.459,107.718 350.695,108.009 350.695,119.035 
		353.016,119.035 353.016,155.891 350.695,155.891 350.695,166.916 372.459,167.206 372.459,155.891 370.137,155.891 
		370.137,141.38 376.521,147.764 376.521,155.891 374.199,155.891 374.199,167.206 395.963,167.497 395.963,155.891 
		393.641,155.891 393.641,119.035 	"/>
	<path fill="#FFEB3D" d="M346.632,155.02v-40.647l-5.804-6.072l-30.18,0.311l-5.803,6.073v39.755h-1.742v11.606h21.475v-11.606
		h-1.741v-8.996h5.804v9.287h-1.742v11.606l21.476,0.289V155.02H346.632L346.632,155.02z M328.641,134.126h-5.804v-11.318h5.804
		V134.126L328.641,134.126z"/>
	<path fill="#FFEB3D" d="M263.93,165.755v-11.606h1.74v-33.662h-1.74V108.88h20.604v11.607h-2.031v33.082h3.48v-5.805h14.801v17.991
		H263.93L263.93,165.755z"/>
	<polygon fill="#FFEB3D" points="261.607,120.486 261.607,108.879 225.044,108.879 225.044,120.486 234.911,120.486 
		234.911,154.148 233.169,154.148 233.169,165.755 253.48,165.755 253.48,154.148 251.741,154.148 251.741,120.486 	"/>
	<polygon fill="#FFEB3D" points="222.723,120.196 222.723,108.589 202.119,108.589 202.119,120.196 203.861,120.196 
		203.861,128.902 197.477,128.902 197.477,120.196 199.218,120.196 199.218,108.589 178.615,108.589 178.615,120.196 
		180.355,120.196 180.355,154.438 178.615,154.438 178.615,166.045 199.218,166.045 199.218,154.438 197.477,154.438 
		197.477,145.732 203.861,145.732 203.861,154.438 202.119,154.438 202.119,166.045 222.723,166.045 222.723,154.438 
		220.981,154.438 220.981,120.196 	"/>
	<path fill="#FFEB3D" d="M176.293,130.062h-16.831V126l-5.804-5.804L147.854,126v22.634l5.804,5.804l5.804-5.804v-2.901h-5.804
		v-10.735h22.634v25.246l-5.804,5.803l-33.081,0.291l-5.804-5.804v-46.43l5.804-5.804l33.081,0.29l5.804,5.804L176.293,130.062
		L176.293,130.062L176.293,130.062z"/>
	<path fill="#FFEB3D" d="M110.421,119.035h-1.741v-11.606l20.604,0.289v11.608h-1.741v35.982h1.741v11.606l-20.604,0.581v-11.605
		h1.741V119.035L110.421,119.035z"/>
	<polygon fill="#FFEB3D" points="106.358,118.455 106.358,107.429 85.175,107.139 85.175,118.455 86.916,118.455 86.916,132.094 
		80.532,125.709 80.532,118.455 82.854,118.455 82.854,107.139 61.089,106.848 61.089,118.455 63.411,118.455 63.411,156.471 
		61.089,156.471 61.089,168.077 82.854,167.786 82.854,156.471 80.532,156.471 80.532,141.38 86.916,147.764 86.916,156.471 
		84.595,156.471 84.595,167.786 106.358,167.497 106.358,156.471 104.037,156.471 104.037,118.455 	"/>
	<path fill="#FFEB3D" d="M46.581,134.706l9.866,21.765h2.321v11.606l-19.732,0.58v-8.995l-6.674-17.992v16.54h2.322v10.737
		l-21.764,0.871V158.21h2.321v-40.916H12.92v-11.607l21.474,0.581v11.026h-2.321v14.22l6.964-14.799v-10.158l18.572,0.291v11.607
		h-2.322L46.581,134.706L46.581,134.706z"/>
</g>
<g>
	<path d="M485.482,95.62V81.647l-4.018-4.206H466.59l-2.401,2.515v-2.515h-42.544v2.524l-2.412-2.524h-20.049v11.633h0.689v6.546
		h-0.689v10.604h20.049l2.412-2.524v2.524h20.957V95.62H440.3v-6.546l5.835,0v6.547h-0.69v10.604h14.4V95.62h-0.69v-6.547
		l3.418,0.001v6.546h-0.691v10.604h24.293V95.62H485.482z"/>
	<linearGradient id="SVGID_17_" gradientUnits="userSpaceOnUse" x1="474.0273" y1="103.2246" x2="474.0273" y2="80.4409">
		<stop  offset="0" style="stop-color:#66ADFF"/>
		<stop  offset="1" style="stop-color:#87F4FF"/>
	</linearGradient>
	<path fill="url(#SVGID_17_)" d="M482.482,98.62V82.85l-2.301-2.409h-12.309l-2.301,2.409V98.62h-0.691v4.604h8.519V98.62h-0.69
		v-3.568h2.638v3.568h-0.691v4.604h8.519V98.62H482.482z M475.347,90.562h-2.638v-4.488h2.638V90.562z"/>
	<linearGradient id="SVGID_18_" gradientUnits="userSpaceOnUse" x1="452.6445" y1="103.2246" x2="452.6445" y2="80.4409">
		<stop  offset="0" style="stop-color:#66ADFF"/>
		<stop  offset="1" style="stop-color:#87F4FF"/>
	</linearGradient>
	<polygon fill="url(#SVGID_18_)" points="444.102,80.441 444.102,86.074 449.135,86.073 449.135,98.62 448.444,98.62 
		448.444,103.225 449.135,103.225 456.154,103.225 456.845,103.225 456.845,98.62 456.154,98.62 456.154,86.073 461.188,86.074 
		461.188,80.441 	"/>
	<linearGradient id="SVGID_19_" gradientUnits="userSpaceOnUse" x1="432.123" y1="103.2246" x2="432.123" y2="80.4409">
		<stop  offset="0" style="stop-color:#66ADFF"/>
		<stop  offset="1" style="stop-color:#87F4FF"/>
	</linearGradient>
	<polygon fill="url(#SVGID_19_)" points="424.645,86.074 425.335,86.074 425.335,98.62 424.645,98.62 424.645,103.225 
		439.602,103.225 439.602,98.62 432.129,98.62 432.129,94.008 437.3,94.008 437.3,89.534 432.129,89.534 432.129,86.074 
		439.602,86.074 439.602,80.441 424.645,80.441 	"/>
	<linearGradient id="SVGID_20_" gradientUnits="userSpaceOnUse" x1="411.2168" y1="103.2246" x2="411.2168" y2="80.4409">
		<stop  offset="0" style="stop-color:#66ADFF"/>
		<stop  offset="1" style="stop-color:#87F4FF"/>
	</linearGradient>
	<path fill="url(#SVGID_20_)" d="M402.184,80.441v5.633h0.689V98.62h-0.689v4.604h15.766l2.302-2.409v-6.547l-2.302-2.409
		l2.302-2.41v-6.6l-2.302-2.409H402.184z M413.688,98.62h-4.02v-4.489h4.02V98.62z M413.688,89.534h-4.02v-3.46h4.02V89.534z"/>
	<path fill="#ADF0FF" d="M480.182,80.441h-12.309l-2.301,2.409v5.852c2.378-0.209,4.757-0.41,7.137-0.601v-2.027h2.638v1.822
		c2.378-0.184,4.757-0.358,7.136-0.523V82.85L480.182,80.441z"/>
	<path fill="#ADF0FF" d="M444.102,86.074l5.033-0.001v4.211c2.339-0.243,4.679-0.479,7.02-0.707v-3.504l5.034,0.001v-5.633h-17.087
		V86.074z"/>
	<path fill="#ADF0FF" d="M424.645,86.074h0.69V93c3.986-0.495,7.975-0.969,11.965-1.426v-2.04h-5.171v-3.46h7.473v-5.633h-14.957
		V86.074z"/>
	<path fill="#ADF0FF" d="M402.184,80.441v5.633h0.689v9.889c2.265-0.315,4.529-0.626,6.795-0.932v-0.9h4.02v0.364
		c2.01-0.266,4.02-0.528,6.029-0.786l-1.768-1.851l2.302-2.41v-6.6l-2.302-2.409H402.184z M413.688,89.534h-4.02v-3.46h4.02V89.534z
		"/>
</g>
</svg>
